# Blender v2.79 (sub 0) OBJ File: '_archcomponenetsblend.blend'
# www.blender.org
o Cube_Cube.002
v -0.043815 0.000000 0.534106
v -0.043815 4.797197 0.534106
v -0.043815 0.000000 -0.534106
v -0.043815 4.797197 -0.534106
v 0.043815 0.000000 0.534106
v 0.043815 4.797197 0.534106
v 0.043815 0.000000 -0.534106
v 0.043815 4.797197 -0.534106
v 0.096394 0.000000 0.534106
v 0.096394 4.797197 0.534106
v 0.096394 0.000000 -0.534106
v 0.096394 4.797197 -0.534106
v 0.184025 0.000000 0.534106
v 0.184025 4.797197 0.534106
v 0.184025 0.000000 -0.534106
v 0.184025 4.797197 -0.534106
v 0.236603 0.000000 0.534106
v 0.236603 4.797197 0.534106
v 0.236603 0.000000 -0.534106
v 0.236603 4.797197 -0.534106
v 0.324234 0.000000 0.534106
v 0.324234 4.797197 0.534106
v 0.324234 0.000000 -0.534106
v 0.324234 4.797197 -0.534106
v 0.376812 0.000000 0.534106
v 0.376812 4.797197 0.534106
v 0.376812 0.000000 -0.534106
v 0.376812 4.797197 -0.534106
v 0.464443 0.000000 0.534106
v 0.464443 4.797197 0.534106
v 0.464443 0.000000 -0.534106
v 0.464443 4.797197 -0.534106
v 0.517022 0.000000 0.534106
v 0.517022 4.797197 0.534106
v 0.517022 0.000000 -0.534106
v 0.517022 4.797197 -0.534106
v 0.604652 0.000000 0.534106
v 0.604652 4.797197 0.534106
v 0.604652 0.000000 -0.534106
v 0.604652 4.797197 -0.534106
v 0.657231 0.000000 0.534106
v 0.657231 4.797197 0.534106
v 0.657231 0.000000 -0.534106
v 0.657231 4.797197 -0.534106
v 0.744862 0.000000 0.534106
v 0.744862 4.797197 0.534106
v 0.744862 0.000000 -0.534106
v 0.744862 4.797197 -0.534106
v 0.797440 0.000000 0.534106
v 0.797440 4.797197 0.534106
v 0.797440 0.000000 -0.534106
v 0.797440 4.797197 -0.534106
v 0.885071 0.000000 0.534106
v 0.885071 4.797197 0.534106
v 0.885071 0.000000 -0.534106
v 0.885071 4.797197 -0.534106
v 0.937649 0.000000 0.534106
v 0.937649 4.797197 0.534106
v 0.937649 0.000000 -0.534106
v 0.937649 4.797197 -0.534106
v 1.025280 0.000000 0.534106
v 1.025280 4.797197 0.534106
v 1.025280 0.000000 -0.534106
v 1.025280 4.797197 -0.534106
v 1.077858 0.000000 0.534106
v 1.077858 4.797197 0.534106
v 1.077858 0.000000 -0.534106
v 1.077858 4.797197 -0.534106
v 1.165489 0.000000 0.534106
v 1.165489 4.797197 0.534106
v 1.165489 0.000000 -0.534106
v 1.165489 4.797197 -0.534106
v 1.218068 0.000000 0.534106
v 1.218068 4.797197 0.534106
v 1.218068 0.000000 -0.534106
v 1.218068 4.797197 -0.534106
v 1.305699 0.000000 0.534106
v 1.305699 4.797197 0.534106
v 1.305699 0.000000 -0.534106
v 1.305699 4.797197 -0.534106
v 1.358277 0.000000 0.534106
v 1.358277 4.797197 0.534106
v 1.358277 0.000000 -0.534106
v 1.358277 4.797197 -0.534106
v 1.445908 0.000000 0.534106
v 1.445908 4.797197 0.534106
v 1.445908 0.000000 -0.534106
v 1.445908 4.797197 -0.534106
v 1.498486 0.000000 0.534106
v 1.498486 4.797197 0.534106
v 1.498486 0.000000 -0.534106
v 1.498486 4.797197 -0.534106
v 1.586117 0.000000 0.534106
v 1.586117 4.797197 0.534106
v 1.586117 0.000000 -0.534106
v 1.586117 4.797197 -0.534106
v 1.638695 0.000000 0.534106
v 1.638695 4.797197 0.534106
v 1.638695 0.000000 -0.534106
v 1.638695 4.797197 -0.534106
v 1.726326 0.000000 0.534106
v 1.726326 4.797197 0.534106
v 1.726326 0.000000 -0.534106
v 1.726326 4.797197 -0.534106
v 1.778905 0.000000 0.534106
v 1.778905 4.797197 0.534106
v 1.778905 0.000000 -0.534106
v 1.778905 4.797197 -0.534106
v 1.866535 0.000000 0.534106
v 1.866535 4.797197 0.534106
v 1.866535 0.000000 -0.534106
v 1.866535 4.797197 -0.534106
v 1.919114 0.000000 0.534106
v 1.919114 4.797197 0.534106
v 1.919114 0.000000 -0.534106
v 1.919114 4.797197 -0.534106
v 2.006745 0.000000 0.534106
v 2.006745 4.797197 0.534106
v 2.006745 0.000000 -0.534106
v 2.006745 4.797197 -0.534106
v 2.059323 0.000000 0.534106
v 2.059323 4.797197 0.534106
v 2.059323 0.000000 -0.534106
v 2.059323 4.797197 -0.534106
v 2.146954 0.000000 0.534106
v 2.146954 4.797197 0.534106
v 2.146954 0.000000 -0.534106
v 2.146954 4.797197 -0.534106
v 2.199532 0.000000 0.534106
v 2.199532 4.797197 0.534106
v 2.199532 0.000000 -0.534106
v 2.199532 4.797197 -0.534106
v 2.287163 0.000000 0.534106
v 2.287163 4.797197 0.534106
v 2.287163 0.000000 -0.534106
v 2.287163 4.797197 -0.534106
v 2.339742 0.000000 0.534106
v 2.339742 4.797197 0.534106
v 2.339742 0.000000 -0.534106
v 2.339742 4.797197 -0.534106
v 2.427372 0.000000 0.534106
v 2.427372 4.797197 0.534106
v 2.427372 0.000000 -0.534106
v 2.427372 4.797197 -0.534106
v 2.479951 0.000000 0.534106
v 2.479951 4.797197 0.534106
v 2.479951 0.000000 -0.534106
v 2.479951 4.797197 -0.534106
v 2.567582 0.000000 0.534106
v 2.567582 4.797197 0.534106
v 2.567582 0.000000 -0.534106
v 2.567582 4.797197 -0.534106
v 2.620160 0.000000 0.534106
v 2.620160 4.797197 0.534106
v 2.620160 0.000000 -0.534106
v 2.620160 4.797197 -0.534106
v 2.707791 0.000000 0.534106
v 2.707791 4.797197 0.534106
v 2.707791 0.000000 -0.534106
v 2.707791 4.797197 -0.534106
vt 0.552614 0.620603
vt 0.552614 0.930904
vt 0.483537 0.930904
vt 0.483537 0.620603
vt 0.972741 0.310301
vt 0.972741 0.000000
vt 0.978408 0.000000
vt 0.978408 0.310301
vt 0.897997 0.310301
vt 0.897997 0.000000
vt 0.967074 0.000000
vt 0.967074 0.310301
vt 0.994333 0.620603
vt 0.994333 0.310301
vt 1.000000 0.310301
vt 1.000000 0.620603
vt 0.165411 0.930904
vt 0.171078 0.930904
vt 0.171078 1.000000
vt 0.165411 1.000000
vt 0.165411 1.000000
vt 0.159745 1.000000
vt 0.159745 0.930904
vt 0.165411 0.930904
vt 0.414460 0.620603
vt 0.414460 0.930904
vt 0.345384 0.930904
vt 0.345384 0.620603
vt 0.971666 0.620603
vt 0.971666 0.310301
vt 0.977333 0.310301
vt 0.977333 0.620603
vt 0.621691 0.000000
vt 0.621691 0.310301
vt 0.552614 0.310301
vt 0.552614 0.000000
vt 0.914998 0.930904
vt 0.914998 0.620603
vt 0.920665 0.620603
vt 0.920665 0.930904
vt 0.176745 0.930904
vt 0.182411 0.930904
vt 0.182411 1.000000
vt 0.176745 1.000000
vt 0.176745 1.000000
vt 0.171078 1.000000
vt 0.171078 0.930904
vt 0.176745 0.930904
vt 0.483537 0.620603
vt 0.483537 0.930904
vt 0.414460 0.930904
vt 0.414460 0.620603
vt 0.967074 0.310301
vt 0.967074 0.000000
vt 0.972741 0.000000
vt 0.972741 0.310301
vt 0.690767 0.000000
vt 0.690767 0.310301
vt 0.621691 0.310301
vt 0.621691 0.000000
vt 0.909331 0.930904
vt 0.909331 0.620603
vt 0.914998 0.620603
vt 0.914998 0.930904
vt 0.154078 0.930904
vt 0.159744 0.930904
vt 0.159745 1.000000
vt 0.154078 1.000000
vt 0.154078 1.000000
vt 0.148411 1.000000
vt 0.148411 0.930904
vt 0.154078 0.930904
vt 0.759844 0.620603
vt 0.759844 0.930904
vt 0.690767 0.930904
vt 0.690767 0.620603
vt 0.977333 0.930904
vt 0.977333 0.620603
vt 0.983000 0.620603
vt 0.983000 0.930904
vt 0.690767 0.310301
vt 0.690767 0.620603
vt 0.621691 0.620603
vt 0.621691 0.310301
vt 0.920665 0.930904
vt 0.920665 0.620603
vt 0.926332 0.620603
vt 0.926332 0.930904
vt 0.142744 0.930904
vt 0.148411 0.930904
vt 0.148411 1.000000
vt 0.142744 1.000000
vt 0.142744 1.000000
vt 0.137078 1.000000
vt 0.137078 0.930904
vt 0.142744 0.930904
vt 0.828921 0.620603
vt 0.828921 0.930904
vt 0.759844 0.930904
vt 0.759844 0.620603
vt 0.977333 0.620603
vt 0.977333 0.310301
vt 0.983000 0.310301
vt 0.983000 0.620603
vt 0.621691 0.310301
vt 0.621691 0.620603
vt 0.552614 0.620603
vt 0.552614 0.310301
vt 0.937665 0.620603
vt 0.937665 0.310301
vt 0.943332 0.310301
vt 0.943332 0.620603
vt 0.188078 0.930904
vt 0.193745 0.930904
vt 0.193745 1.000000
vt 0.188078 1.000000
vt 0.188078 1.000000
vt 0.182411 1.000000
vt 0.182411 0.930904
vt 0.188078 0.930904
vt 0.414461 0.310301
vt 0.414461 0.000000
vt 0.483537 0.000000
vt 0.483537 0.310301
vt 0.984074 0.310301
vt 0.984074 0.000000
vt 0.989741 0.000000
vt 0.989741 0.310301
vt 0.828921 0.930904
vt 0.828921 0.620603
vt 0.897997 0.620603
vt 0.897997 0.930904
vt 0.943332 0.930904
vt 0.943332 0.620603
vt 0.948999 0.620603
vt 0.948999 0.930904
vt 0.205078 0.930904
vt 0.210745 0.930904
vt 0.210745 1.000000
vt 0.205078 1.000000
vt 0.205078 1.000000
vt 0.199412 1.000000
vt 0.199412 0.930904
vt 0.205078 0.930904
vt 0.483537 0.310301
vt 0.483537 0.000000
vt 0.552614 0.000000
vt 0.552614 0.310301
vt 0.971666 0.930904
vt 0.971666 0.620603
vt 0.977333 0.620603
vt 0.977333 0.930904
vt 0.759844 0.000000
vt 0.759844 0.310301
vt 0.690767 0.310301
vt 0.690767 0.000000
vt 0.943332 0.620603
vt 0.943332 0.310301
vt 0.948999 0.310301
vt 0.948999 0.620603
vt 0.210745 0.930904
vt 0.216412 0.930904
vt 0.216412 1.000000
vt 0.210745 1.000000
vt 0.199412 1.000000
vt 0.193745 1.000000
vt 0.193745 0.930904
vt 0.199412 0.930904
vt 0.000000 0.620603
vt 0.000000 0.310301
vt 0.069077 0.310301
vt 0.069077 0.620603
vt 0.988666 0.930904
vt 0.988666 0.620603
vt 0.994333 0.620603
vt 0.994333 0.930904
vt 0.759844 0.310301
vt 0.759844 0.620603
vt 0.690767 0.620603
vt 0.690767 0.310301
vt 0.937665 0.930904
vt 0.937665 0.620603
vt 0.943332 0.620603
vt 0.943332 0.930904
vt 0.216412 0.930904
vt 0.222078 0.930904
vt 0.222078 1.000000
vt 0.216412 1.000000
vt 0.227745 1.000000
vt 0.222078 1.000000
vt 0.222078 0.930904
vt 0.227745 0.930904
vt 0.207230 0.620603
vt 0.207230 0.310301
vt 0.276307 0.310301
vt 0.276307 0.620603
vt 0.954666 0.930904
vt 0.954666 0.620603
vt 0.960332 0.620603
vt 0.960333 0.930904
vt 0.828921 0.000000
vt 0.828921 0.310301
vt 0.759844 0.310301
vt 0.759844 0.000000
vt 0.903664 0.930904
vt 0.903664 0.620603
vt 0.909331 0.620603
vt 0.909331 0.930904
vt 0.097410 0.930904
vt 0.103077 0.930904
vt 0.103077 1.000000
vt 0.097410 1.000000
vt 0.097410 1.000000
vt 0.091744 1.000000
vt 0.091744 0.930904
vt 0.097410 0.930904
vt 0.069077 0.310301
vt 0.069077 0.000000
vt 0.138153 0.000000
vt 0.138154 0.310301
vt 0.965999 0.620603
vt 0.965999 0.310301
vt 0.971666 0.310301
vt 0.971666 0.620603
vt 0.069077 0.620603
vt 0.069077 0.930904
vt 0.000000 0.930904
vt 0.000000 0.620603
vt 0.920665 0.620603
vt 0.920665 0.310301
vt 0.926332 0.310301
vt 0.926332 0.620603
vt 0.034000 0.930904
vt 0.039667 0.930904
vt 0.039667 1.000000
vt 0.034000 1.000000
vt 0.091744 1.000000
vt 0.086077 1.000000
vt 0.086077 0.930904
vt 0.091744 0.930904
vt 0.621691 0.620603
vt 0.621691 0.930904
vt 0.552614 0.930904
vt 0.552614 0.620603
vt 0.965999 0.930904
vt 0.965999 0.620603
vt 0.971666 0.620603
vt 0.971666 0.930904
vt 0.276307 0.620603
vt 0.276307 0.930904
vt 0.207230 0.930904
vt 0.207230 0.620603
vt 0.909331 0.620603
vt 0.909331 0.310301
vt 0.914998 0.310301
vt 0.914998 0.620603
vt 0.011333 0.930904
vt 0.017000 0.930904
vt 0.017000 1.000000
vt 0.011334 1.000000
vt 0.022667 1.000000
vt 0.017000 1.000000
vt 0.017000 0.930904
vt 0.022667 0.930904
vt 0.207230 0.310301
vt 0.207230 0.000000
vt 0.276307 0.000000
vt 0.276307 0.310301
vt 0.948999 0.930904
vt 0.948999 0.620603
vt 0.954666 0.620603
vt 0.954666 0.930904
vt 0.207230 0.620603
vt 0.207230 0.930904
vt 0.138154 0.930904
vt 0.138154 0.620603
vt 0.903664 0.620603
vt 0.903664 0.310301
vt 0.909331 0.310301
vt 0.909331 0.620603
vt 0.103077 0.930904
vt 0.108744 0.930904
vt 0.108744 1.000000
vt 0.103077 1.000000
vt 0.086077 1.000000
vt 0.080410 1.000000
vt 0.080410 0.930904
vt 0.086077 0.930904
vt 0.345384 0.620603
vt 0.345384 0.930904
vt 0.276307 0.930904
vt 0.276307 0.620603
vt 0.960333 0.620603
vt 0.960333 0.310301
vt 0.965999 0.310301
vt 0.965999 0.620603
vt 0.138153 0.620603
vt 0.138153 0.930904
vt 0.069077 0.930904
vt 0.069077 0.620603
vt 0.914998 0.620603
vt 0.914998 0.310301
vt 0.920665 0.310301
vt 0.920665 0.620603
vt 0.108744 0.930904
vt 0.114411 0.930904
vt 0.114411 1.000000
vt 0.108744 1.000000
vt 0.080410 1.000000
vt 0.074744 1.000000
vt 0.074744 0.930904
vt 0.080410 0.930904
vt 0.690767 0.620603
vt 0.690767 0.930904
vt 0.621691 0.930904
vt 0.621691 0.620603
vt 0.960333 0.930904
vt 0.960333 0.620603
vt 0.965999 0.620603
vt 0.965999 0.930904
vt 0.828921 0.310301
vt 0.828921 0.620603
vt 0.759844 0.620603
vt 0.759844 0.310301
vt 0.897997 0.930904
vt 0.897997 0.620603
vt 0.903664 0.620603
vt 0.903664 0.930904
vt 0.114411 0.930904
vt 0.120077 0.930904
vt 0.120077 1.000000
vt 0.114411 1.000000
vt 0.074744 1.000000
vt 0.069077 1.000000
vt 0.069077 0.930904
vt 0.074743 0.930904
vt 0.138154 0.310301
vt 0.138154 0.000000
vt 0.207230 0.000000
vt 0.207230 0.310301
vt 0.983000 0.620603
vt 0.983000 0.310301
vt 0.988666 0.310301
vt 0.988666 0.620603
vt 0.897997 0.000000
vt 0.897997 0.310301
vt 0.828921 0.310301
vt 0.828921 0.000000
vt 0.926332 0.620603
vt 0.926332 0.310301
vt 0.931998 0.310301
vt 0.931998 0.620603
vt 0.120077 0.930904
vt 0.125744 0.930904
vt 0.125744 1.000000
vt 0.120077 1.000000
vt 0.068001 1.000000
vt 0.062334 1.000000
vt 0.062334 0.930904
vt 0.068001 0.930904
vt 0.000000 0.310301
vt 0.000000 0.000000
vt 0.069077 0.000000
vt 0.069077 0.310301
vt 0.954666 0.620603
vt 0.954666 0.310301
vt 0.960333 0.310301
vt 0.960333 0.620603
vt 0.897997 0.310301
vt 0.897997 0.620603
vt 0.828921 0.620603
vt 0.828921 0.310301
vt 0.926332 0.930904
vt 0.926332 0.620603
vt 0.931998 0.620603
vt 0.931998 0.930904
vt 0.125744 0.930904
vt 0.131411 0.930904
vt 0.131411 1.000000
vt 0.125744 1.000000
vt 0.062334 1.000000
vt 0.056667 1.000000
vt 0.056667 0.930904
vt 0.062334 0.930904
vt 0.138154 0.620603
vt 0.138154 0.310301
vt 0.207230 0.310301
vt 0.207230 0.620603
vt 0.984074 0.000000
vt 0.984074 0.310301
vt 0.978408 0.310301
vt 0.978408 0.000000
vt 0.345384 0.310301
vt 0.345384 0.620603
vt 0.276307 0.620603
vt 0.276307 0.310301
vt 0.931999 0.620603
vt 0.931998 0.310301
vt 0.937665 0.310301
vt 0.937665 0.620603
vt 0.000000 0.930904
vt 0.005667 0.930904
vt 0.005667 1.000000
vt 0.000000 1.000000
vt 0.011333 1.000000
vt 0.005667 1.000000
vt 0.005667 0.930904
vt 0.011333 0.930904
vt 0.069077 0.620603
vt 0.069077 0.310301
vt 0.138153 0.310301
vt 0.138154 0.620603
vt 0.988666 0.620603
vt 0.988666 0.930904
vt 0.983000 0.930904
vt 0.983000 0.620603
vt 0.414460 0.310301
vt 0.414460 0.620603
vt 0.345384 0.620603
vt 0.345384 0.310301
vt 0.931999 0.930904
vt 0.931998 0.620603
vt 0.937665 0.620603
vt 0.937665 0.930904
vt 0.131411 0.930904
vt 0.137078 0.930904
vt 0.137078 1.000000
vt 0.131411 1.000000
vt 0.056667 1.000000
vt 0.051001 1.000000
vt 0.051001 0.930904
vt 0.056667 0.930904
vt 0.345384 0.310301
vt 0.345384 0.000000
vt 0.414460 0.000000
vt 0.414461 0.310301
vt 0.989741 0.310301
vt 0.989741 0.000000
vt 0.995408 0.000000
vt 0.995408 0.310301
vt 0.483537 0.310301
vt 0.483537 0.620603
vt 0.414460 0.620603
vt 0.414460 0.310301
vt 0.948999 0.620603
vt 0.948999 0.310301
vt 0.954666 0.310301
vt 0.954666 0.620603
vt 0.022667 0.930904
vt 0.028334 0.930904
vt 0.028334 1.000000
vt 0.022667 1.000000
vt 0.051001 1.000000
vt 0.045334 1.000000
vt 0.045334 0.930904
vt 0.051001 0.930904
vt 0.276307 0.310301
vt 0.276307 0.000000
vt 0.345384 0.000000
vt 0.345384 0.310301
vt 0.988667 0.620603
vt 0.988666 0.310301
vt 0.994333 0.310301
vt 0.994333 0.620603
vt 0.552614 0.310301
vt 0.552614 0.620603
vt 0.483537 0.620603
vt 0.483537 0.310301
vt 0.897998 0.620603
vt 0.897997 0.310301
vt 0.903664 0.310301
vt 0.903664 0.620603
vt 0.028334 0.930904
vt 0.034000 0.930904
vt 0.034000 1.000000
vt 0.028334 1.000000
vt 0.045334 1.000000
vt 0.039667 1.000000
vt 0.039667 0.930904
vt 0.045334 0.930904
vn -1.0000 0.0000 0.0000
vn 0.0000 0.0000 -1.0000
vn 1.0000 0.0000 0.0000
vn 0.0000 0.0000 1.0000
vn 0.0000 -1.0000 0.0000
vn 0.0000 1.0000 0.0000
s off
f 1/1/1 2/2/1 4/3/1 3/4/1
f 3/5/2 4/6/2 8/7/2 7/8/2
f 7/9/3 8/10/3 6/11/3 5/12/3
f 5/13/4 6/14/4 2/15/4 1/16/4
f 3/17/5 7/18/5 5/19/5 1/20/5
f 8/21/6 4/22/6 2/23/6 6/24/6
f 9/25/1 10/26/1 12/27/1 11/28/1
f 11/29/2 12/30/2 16/31/2 15/32/2
f 15/33/3 16/34/3 14/35/3 13/36/3
f 13/37/4 14/38/4 10/39/4 9/40/4
f 11/41/5 15/42/5 13/43/5 9/44/5
f 16/45/6 12/46/6 10/47/6 14/48/6
f 17/49/1 18/50/1 20/51/1 19/52/1
f 19/53/2 20/54/2 24/55/2 23/56/2
f 23/57/3 24/58/3 22/59/3 21/60/3
f 21/61/4 22/62/4 18/63/4 17/64/4
f 19/65/5 23/66/5 21/67/5 17/68/5
f 24/69/6 20/70/6 18/71/6 22/72/6
f 25/73/1 26/74/1 28/75/1 27/76/1
f 27/77/2 28/78/2 32/79/2 31/80/2
f 31/81/3 32/82/3 30/83/3 29/84/3
f 29/85/4 30/86/4 26/87/4 25/88/4
f 27/89/5 31/90/5 29/91/5 25/92/5
f 32/93/6 28/94/6 26/95/6 30/96/6
f 33/97/1 34/98/1 36/99/1 35/100/1
f 35/101/2 36/102/2 40/103/2 39/104/2
f 39/105/3 40/106/3 38/107/3 37/108/3
f 37/109/4 38/110/4 34/111/4 33/112/4
f 35/113/5 39/114/5 37/115/5 33/116/5
f 40/117/6 36/118/6 34/119/6 38/120/6
f 41/121/1 42/122/1 44/123/1 43/124/1
f 43/125/2 44/126/2 48/127/2 47/128/2
f 47/129/3 48/130/3 46/131/3 45/132/3
f 45/133/4 46/134/4 42/135/4 41/136/4
f 43/137/5 47/138/5 45/139/5 41/140/5
f 48/141/6 44/142/6 42/143/6 46/144/6
f 49/145/1 50/146/1 52/147/1 51/148/1
f 51/149/2 52/150/2 56/151/2 55/152/2
f 55/153/3 56/154/3 54/155/3 53/156/3
f 53/157/4 54/158/4 50/159/4 49/160/4
f 51/161/5 55/162/5 53/163/5 49/164/5
f 56/165/6 52/166/6 50/167/6 54/168/6
f 57/169/1 58/170/1 60/171/1 59/172/1
f 59/173/2 60/174/2 64/175/2 63/176/2
f 63/177/3 64/178/3 62/179/3 61/180/3
f 61/181/4 62/182/4 58/183/4 57/184/4
f 59/185/5 63/186/5 61/187/5 57/188/5
f 64/189/6 60/190/6 58/191/6 62/192/6
f 65/193/1 66/194/1 68/195/1 67/196/1
f 67/197/2 68/198/2 72/199/2 71/200/2
f 71/201/3 72/202/3 70/203/3 69/204/3
f 69/205/4 70/206/4 66/207/4 65/208/4
f 67/209/5 71/210/5 69/211/5 65/212/5
f 72/213/6 68/214/6 66/215/6 70/216/6
f 73/217/1 74/218/1 76/219/1 75/220/1
f 75/221/2 76/222/2 80/223/2 79/224/2
f 79/225/3 80/226/3 78/227/3 77/228/3
f 77/229/4 78/230/4 74/231/4 73/232/4
f 75/233/5 79/234/5 77/235/5 73/236/5
f 80/237/6 76/238/6 74/239/6 78/240/6
f 81/241/1 82/242/1 84/243/1 83/244/1
f 83/245/2 84/246/2 88/247/2 87/248/2
f 87/249/3 88/250/3 86/251/3 85/252/3
f 85/253/4 86/254/4 82/255/4 81/256/4
f 83/257/5 87/258/5 85/259/5 81/260/5
f 88/261/6 84/262/6 82/263/6 86/264/6
f 89/265/1 90/266/1 92/267/1 91/268/1
f 91/269/2 92/270/2 96/271/2 95/272/2
f 95/273/3 96/274/3 94/275/3 93/276/3
f 93/277/4 94/278/4 90/279/4 89/280/4
f 91/281/5 95/282/5 93/283/5 89/284/5
f 96/285/6 92/286/6 90/287/6 94/288/6
f 97/289/1 98/290/1 100/291/1 99/292/1
f 99/293/2 100/294/2 104/295/2 103/296/2
f 103/297/3 104/298/3 102/299/3 101/300/3
f 101/301/4 102/302/4 98/303/4 97/304/4
f 99/305/5 103/306/5 101/307/5 97/308/5
f 104/309/6 100/310/6 98/311/6 102/312/6
f 105/313/1 106/314/1 108/315/1 107/316/1
f 107/317/2 108/318/2 112/319/2 111/320/2
f 111/321/3 112/322/3 110/323/3 109/324/3
f 109/325/4 110/326/4 106/327/4 105/328/4
f 107/329/5 111/330/5 109/331/5 105/332/5
f 112/333/6 108/334/6 106/335/6 110/336/6
f 113/337/1 114/338/1 116/339/1 115/340/1
f 115/341/2 116/342/2 120/343/2 119/344/2
f 119/345/3 120/346/3 118/347/3 117/348/3
f 117/349/4 118/350/4 114/351/4 113/352/4
f 115/353/5 119/354/5 117/355/5 113/356/5
f 120/357/6 116/358/6 114/359/6 118/360/6
f 121/361/1 122/362/1 124/363/1 123/364/1
f 123/365/2 124/366/2 128/367/2 127/368/2
f 127/369/3 128/370/3 126/371/3 125/372/3
f 125/373/4 126/374/4 122/375/4 121/376/4
f 123/377/5 127/378/5 125/379/5 121/380/5
f 128/381/6 124/382/6 122/383/6 126/384/6
f 129/385/1 130/386/1 132/387/1 131/388/1
f 131/389/2 132/390/2 136/391/2 135/392/2
f 135/393/3 136/394/3 134/395/3 133/396/3
f 133/397/4 134/398/4 130/399/4 129/400/4
f 131/401/5 135/402/5 133/403/5 129/404/5
f 136/405/6 132/406/6 130/407/6 134/408/6
f 137/409/1 138/410/1 140/411/1 139/412/1
f 139/413/2 140/414/2 144/415/2 143/416/2
f 143/417/3 144/418/3 142/419/3 141/420/3
f 141/421/4 142/422/4 138/423/4 137/424/4
f 139/425/5 143/426/5 141/427/5 137/428/5
f 144/429/6 140/430/6 138/431/6 142/432/6
f 145/433/1 146/434/1 148/435/1 147/436/1
f 147/437/2 148/438/2 152/439/2 151/440/2
f 151/441/3 152/442/3 150/443/3 149/444/3
f 149/445/4 150/446/4 146/447/4 145/448/4
f 147/449/5 151/450/5 149/451/5 145/452/5
f 152/453/6 148/454/6 146/455/6 150/456/6
f 153/457/1 154/458/1 156/459/1 155/460/1
f 155/461/2 156/462/2 160/463/2 159/464/2
f 159/465/3 160/466/3 158/467/3 157/468/3
f 157/469/4 158/470/4 154/471/4 153/472/4
f 155/473/5 159/474/5 157/475/5 153/476/5
f 160/477/6 156/478/6 154/479/6 158/480/6
